<svg width="70" height="25" viewBox="0 0 70 25" fill="none" xmlns="http://www.w3.org/2000/svg">
    <path fill-rule="evenodd" clip-rule="evenodd"
        d="M22.2351 15.4226C22.2351 16.3252 22.3807 17.1585 22.6722 17.9232C22.9638 18.6878 23.3747 19.3394 23.9047 19.8784C24.4348 20.4173 25.0842 20.8434 25.8527 21.1568C26.6212 21.4699 27.4826 21.6268 28.4365 21.6268C29.3905 21.6268 30.2521 21.4702 31.0206 21.1568C31.7894 20.8434 32.4385 20.4171 32.9686 19.8784C33.4986 19.3394 33.9095 18.6878 34.2011 17.9232C34.4926 17.1585 34.6382 16.3252 34.6382 15.4226C34.6382 14.5201 34.4926 13.6868 34.2011 12.9223C33.9095 12.1575 33.4986 11.5059 32.9686 10.9669C32.4385 10.4279 31.7894 10.0019 31.0206 9.68848C30.2521 9.3751 29.3907 9.21852 28.4365 9.21852C27.4826 9.21852 26.6212 9.3751 25.8527 9.68848C25.0842 10.0019 24.4348 10.4279 23.9047 10.9669C23.3747 11.5059 22.964 12.1575 22.6722 12.9223C22.3807 13.6868 22.2351 14.5201 22.2351 15.4226ZM16.1087 11.6915C15.3515 10.9476 14.8038 10.417 13.7806 9.9417C13.0518 9.60323 12.1839 9.43387 11.1768 9.43387C10.1964 9.43387 9.34163 9.60323 8.61265 9.9417C7.88391 10.2802 7.2743 10.7439 6.78406 11.333C6.29382 11.9219 5.9227 12.5989 5.67095 13.3637C5.41919 14.1282 5.29319 14.9241 5.29319 15.7511C5.29319 16.5784 5.43909 17.3617 5.73038 18.1014C6.02193 18.8406 6.43284 19.4862 6.96262 20.0377C7.49265 20.5892 8.12879 21.0216 8.87079 21.335C9.61303 21.6484 10.4476 21.8049 11.3753 21.8049C12.3823 21.8049 13.2437 21.6358 13.9591 21.2973C14.6304 20.98 15.2552 20.5247 15.8329 19.9316C15.8349 19.9293 15.8373 19.9227 15.8396 19.9248L18.2986 22.4155C18.3013 22.418 18.293 22.4208 18.2903 22.4236C17.4085 23.2948 16.3956 23.9285 15.2511 24.3244C14.0188 24.7504 12.7136 24.9634 11.3353 24.9634C9.87755 24.9634 8.54584 24.7379 7.33988 24.2867C6.13417 23.8353 5.094 23.2025 4.21938 22.388C3.34499 21.5733 2.66907 20.5955 2.19209 19.4551C1.71486 18.3145 1.47637 17.0551 1.47637 15.6761C1.47637 14.2975 1.71486 13.0315 2.19209 11.8785C2.66907 10.7253 3.33836 9.73518 4.19973 8.90815C5.06109 8.08089 6.09463 7.43529 7.30034 6.9716C8.5063 6.5079 9.85127 6.27606 11.3353 6.27606C12.7134 6.27606 14.0321 6.5079 15.2909 6.9716C16.5496 7.43529 17.6824 8.23561 18.6098 9.18785L16.1083 11.6917L16.1087 11.6915ZM11.2078 0.0254763C15.3068 0.0503337 19.0725 1.48486 22.0609 3.87186L19.622 6.31508C17.2631 4.54278 14.3479 3.48692 11.1874 3.46764C7.88465 3.44766 4.8366 4.56322 2.40258 6.45238L0.000488281 3.98825C3.06524 1.48741 6.9668 -0.000310306 11.2078 0.0254763ZM58.3735 6.57179C59.5493 6.23076 60.7245 6.06001 61.9 6.06001C63.2939 6.06001 64.4934 6.22472 65.4987 6.5546C66.5038 6.88402 67.328 7.32773 67.9715 7.88551C68.6151 8.44329 69.0908 9.08354 69.3993 9.80603C69.7075 10.529 69.8615 11.2831 69.8615 12.069V21.2729C69.8615 21.9067 69.8748 22.49 69.9016 23.0225C69.9244 23.4783 69.9571 23.9155 69.9998 24.3341H66.7877C66.7192 23.4913 66.6848 22.6482 66.6848 21.8054H66.6045C65.8003 22.9716 64.8486 23.7956 63.7497 24.2772C62.6506 24.7592 61.3773 24.9999 59.93 24.9999C59.0453 24.9999 58.2008 24.8861 57.3965 24.6577C56.5926 24.4296 55.8889 24.0872 55.2857 23.6309C54.6824 23.1746 54.2067 22.6104 53.8584 21.9383C53.5099 21.2664 53.3357 20.4866 53.3357 19.5994C53.3357 18.4329 53.6103 17.4568 54.1598 16.6708C54.7095 15.8847 55.46 15.2447 56.4116 14.7503C57.3633 14.256 58.4757 13.901 59.7489 13.6854C61.0224 13.4698 62.3829 13.362 63.8303 13.362H66.4841V12.6014C66.4841 12.1449 66.3903 11.6887 66.2027 11.2324C66.015 10.7759 65.7335 10.3638 65.3585 9.9963C64.9832 9.62878 64.5141 9.33723 63.9509 9.12164C63.3882 8.90606 62.7179 8.79827 61.9403 8.79827C61.2435 8.79827 60.6334 8.86145 60.111 8.9883C59.5881 9.11514 59.1123 9.27357 58.6835 9.46361C58.2546 9.65387 57.8661 9.87573 57.5175 10.1294C57.2314 10.3376 56.9541 10.5374 56.6859 10.7285L58.3737 6.57179H58.3735ZM64.5541 15.8722C63.6962 15.8722 62.8184 15.9165 61.9202 16.0053C61.0222 16.0938 60.2045 16.2652 59.4675 16.5184C58.7301 16.7721 58.1272 17.1271 57.6578 17.5834C57.1887 18.0396 56.9541 18.6227 56.9541 19.3329C56.9541 20.3725 57.3228 21.1203 58.0601 21.577C58.7972 22.0333 59.7959 22.2614 61.0556 22.2614C62.0474 22.2614 62.892 22.103 63.5888 21.7861C64.2859 21.4692 64.8486 21.0571 65.2777 20.55C65.7068 20.0429 66.015 19.4788 66.2024 18.8574C66.3901 18.2364 66.4839 17.6215 66.4839 17.013V15.8719H64.5539L64.5541 15.8722ZM37.0526 6.51116H41.187L46.8319 20.1604L52.2384 6.51116H56.0549L48.6608 24.3339H44.7251L37.0524 6.51116H37.0526ZM18.4187 15.4224C18.4187 14.1189 18.6771 12.9032 19.1939 11.7751C19.7109 10.6472 20.4197 9.65712 21.3206 8.80477C22.2218 7.95242 23.2821 7.28197 24.5011 6.79318C25.7201 6.3044 27.0319 6.06001 28.4365 6.06001C29.8412 6.06001 31.153 6.3044 32.372 6.79318C33.5912 7.28173 34.6513 7.95242 35.5524 8.80477C36.4536 9.65712 37.1624 10.6472 37.6792 11.7751C38.1959 12.9032 38.4543 14.1189 38.4543 15.4224C38.4543 16.7259 38.1959 17.9481 37.6792 19.0883C37.1624 20.2289 36.4536 21.219 35.5524 22.0589C34.6513 22.8987 33.5912 23.5628 32.372 24.0516C31.153 24.5406 29.8412 24.7848 28.4365 24.7848C27.0319 24.7848 25.7201 24.5406 24.5011 24.0516C23.2819 23.5628 22.2215 22.8984 21.3206 22.0589C20.4195 21.219 19.7107 20.2289 19.1939 19.0883C18.6771 17.9479 18.4187 16.7259 18.4187 15.4224Z"
        fill="#0056CD"></path>
</svg>